<?xml version="1.0" encoding="utf-8" standalone="no"?>
<!DOCTYPE svg PUBLIC "-//W3C//DTD SVG 1.1//EN"
  "http://www.w3.org/Graphics/SVG/1.1/DTD/svg11.dtd">
<svg xmlns:xlink="http://www.w3.org/1999/xlink" width="688.937715pt" height="248.454008pt" viewBox="0 0 688.937715 248.454008" xmlns="http://www.w3.org/2000/svg" version="1.1">
 <metadata>
  <rdf:RDF xmlns:dc="http://purl.org/dc/elements/1.1/" xmlns:cc="http://creativecommons.org/ns#" xmlns:rdf="http://www.w3.org/1999/02/22-rdf-syntax-ns#">
   <cc:Work>
    <dc:type rdf:resource="http://purl.org/dc/dcmitype/StillImage"/>
    <dc:date>2025-10-06T15:11:06.068133</dc:date>
    <dc:format>image/svg+xml</dc:format>
    <dc:creator>
     <cc:Agent>
      <dc:title>Matplotlib v3.10.0, https://matplotlib.org/</dc:title>
     </cc:Agent>
    </dc:creator>
   </cc:Work>
  </rdf:RDF>
 </metadata>
 <defs>
  <style type="text/css">*{stroke-linejoin: round; stroke-linecap: butt}</style>
 </defs>
 <g id="figure_1">
  <g id="patch_1">
   <path d="M -0 248.454008 
L 688.937715 248.454008 
L 688.937715 0 
L -0 0 
z
" style="fill: #ffffff"/>
  </g>
  <g id="axes_1">
   <g id="patch_2">
    <path d="M 49.5491 159.264152 
L 228.1091 159.264152 
L 228.1091 31.752152 
L 49.5491 31.752152 
z
" style="fill: #ffffff"/>
   </g>
   <g id="FillBetweenPolyCollection_1">
    <defs>
     <path id="ma53108dfcf" d="M 57.665464 -94.985856 
L 57.665464 -94.985856 
L 73.898191 -97.841028 
L 90.130919 -97.841028 
L 106.363646 -100.360718 
L 122.596373 -96.698959 
L 138.8291 -98.412063 
L 155.061828 -105.264477 
L 171.294555 -107.548615 
L 187.527282 -113.258959 
L 203.76001 -123.53758 
L 219.992737 -126.67827 
L 219.992737 -150.947235 
L 219.992737 -150.947235 
L 203.76001 -152.660339 
L 187.527282 -141.239649 
L 171.294555 -127.534822 
L 155.061828 -115.25758 
L 138.8291 -109.261718 
L 122.596373 -110.974822 
L 106.363646 -113.829994 
L 90.130919 -114.979201 
L 73.898191 -106.121028 
L 57.665464 -94.985856 
z
" style="stroke: #878787; stroke-opacity: 0.15"/>
    </defs>
    <g clip-path="url(#p05cc989a58)">
     <use xlink:href="#ma53108dfcf" x="0" y="248.454008" style="fill: #878787; fill-opacity: 0.15; stroke: #878787; stroke-opacity: 0.15"/>
    </g>
   </g>
   <g id="FillBetweenPolyCollection_2">
    <defs>
     <path id="m36dd93fee4" d="M 57.665464 -94.985856 
L 57.665464 -94.985856 
L 73.898191 -137.527925 
L 90.130919 -129.533442 
L 106.363646 -139.241028 
L 122.596373 -140.954132 
L 138.8291 -143.809304 
L 155.061828 -142.667235 
L 171.294555 -148.092063 
L 187.527282 -157.514132 
L 203.76001 -152.089304 
L 219.992737 -158.085166 
L 219.992737 -202.625856 
L 219.992737 -202.625856 
L 203.76001 -199.485166 
L 187.527282 -210.905856 
L 171.294555 -185.780339 
L 155.061828 -185.494822 
L 138.8291 -172.075511 
L 122.596373 -159.519891 
L 106.363646 -189.77758 
L 90.130919 -165.794132 
L 73.898191 -156.372063 
L 57.665464 -94.985856 
z
" style="stroke: #598be7; stroke-opacity: 0.15"/>
    </defs>
    <g clip-path="url(#p05cc989a58)">
     <use xlink:href="#m36dd93fee4" x="0" y="248.454008" style="fill: #598be7; fill-opacity: 0.15; stroke: #598be7; stroke-opacity: 0.15"/>
    </g>
   </g>
   <g id="matplotlib.axis_1">
    <g id="xtick_1">
     <g id="line2d_1">
      <path d="M 57.665464 159.264152 
L 57.665464 31.752152 
" clip-path="url(#p05cc989a58)" style="fill: none; stroke-dasharray: 2.96,1.28; stroke-dashoffset: 0; stroke: #dddddd; stroke-width: 0.8"/>
     </g>
     <g id="line2d_2">
      <defs>
       <path id="mbbc3d1dacb" d="M 0 0 
L 0 3.5 
" style="stroke: #000000; stroke-width: 0.8"/>
      </defs>
      <g>
       <use xlink:href="#mbbc3d1dacb" x="57.665464" y="159.264152" style="stroke: #000000; stroke-width: 0.8"/>
      </g>
     </g>
     <g id="text_1">
      <!-- 0 -->
      <g transform="translate(53.564175 176.005393) scale(0.16 -0.16)">
       <defs>
        <path id="CMTT12-30" d="M 2970 1974 
C 2970 3170 2336 4019 1645 4019 
C 947 4019 320 3158 320 1981 
C 320 785 954 -64 1645 -64 
C 2342 -64 2970 798 2970 1974 
z
M 1645 307 
C 1139 307 736 1086 736 2045 
C 736 3004 1178 3648 1645 3648 
C 2112 3648 2554 3004 2554 2045 
C 2554 1092 2150 307 1645 307 
z
" transform="scale(0.015625)"/>
       </defs>
       <use xlink:href="#CMTT12-30" transform="scale(0.996264)"/>
      </g>
     </g>
    </g>
    <g id="xtick_2">
     <g id="line2d_3">
      <path d="M 219.992737 159.264152 
L 219.992737 31.752152 
" clip-path="url(#p05cc989a58)" style="fill: none; stroke-dasharray: 2.96,1.28; stroke-dashoffset: 0; stroke: #dddddd; stroke-width: 0.8"/>
     </g>
     <g id="line2d_4">
      <g>
       <use xlink:href="#mbbc3d1dacb" x="219.992737" y="159.264152" style="stroke: #000000; stroke-width: 0.8"/>
      </g>
     </g>
     <g id="text_2">
      <!-- 1M -->
      <g transform="translate(211.790159 176.005393) scale(0.16 -0.16)">
       <defs>
        <path id="CMTT12-31" d="M 1946 3737 
C 1946 3833 1946 4000 1760 4000 
C 1651 4000 1613 3942 1574 3856 
C 1453 3574 1242 3227 902 3200 
C 806 3200 672 3187 672 3021 
C 672 2912 736 2835 877 2835 
C 1235 2835 1510 3104 1530 3117 
L 1530 371 
L 966 371 
C 877 371 704 371 704 186 
C 704 0 877 0 966 0 
L 2509 0 
C 2598 0 2771 0 2771 186 
C 2771 371 2598 371 2509 371 
L 1946 371 
L 1946 3737 
z
" transform="scale(0.015625)"/>
        <path id="CMTT12-4d" d="M 1869 2518 
C 1786 2255 1683 1949 1645 1738 
L 1638 1738 
C 1587 2058 1030 3732 1018 3757 
C 947 3904 819 3904 710 3904 
L 371 3904 
C 282 3904 109 3904 109 3719 
C 109 3533 269 3533 435 3533 
L 435 371 
C 269 371 109 371 109 186 
C 109 0 282 0 371 0 
L 858 0 
C 947 0 1120 0 1120 186 
C 1120 371 960 371 794 371 
L 794 3456 
L 800 3456 
C 838 3258 858 3188 934 2958 
L 1389 1534 
C 1402 1483 1459 1304 1645 1304 
C 1722 1304 1830 1355 1882 1470 
C 1914 1566 2496 3358 2496 3448 
L 2496 371 
C 2330 371 2170 371 2170 186 
C 2170 0 2342 0 2432 0 
L 2918 0 
C 3008 0 3181 0 3181 186 
C 3181 371 3021 371 2854 371 
L 2854 3533 
C 3021 3533 3181 3533 3181 3719 
C 3181 3904 3008 3904 2918 3904 
L 2579 3904 
C 2330 3904 2291 3828 2240 3661 
L 1869 2518 
z
" transform="scale(0.015625)"/>
       </defs>
       <use xlink:href="#CMTT12-31" transform="scale(0.996264)"/>
       <use xlink:href="#CMTT12-4d" transform="translate(51.266111 0) scale(0.996264)"/>
      </g>
     </g>
    </g>
    <g id="text_3">
     <!-- \texttt{Steps} -->
     <g transform="translate(115.75937 194.506556) scale(0.18 -0.18)">
      <defs>
       <path id="CMTT12-53" d="M 2797 3757 
C 2797 3859 2797 4000 2618 4000 
C 2483 4000 2470 3949 2394 3680 
C 2080 3955 1715 4000 1491 4000 
C 813 4000 326 3514 326 2951 
C 326 2573 550 2323 589 2285 
C 858 2016 966 1991 1638 1831 
C 2118 1722 2227 1696 2387 1517 
C 2502 1376 2566 1216 2566 1037 
C 2566 691 2291 307 1786 307 
C 1235 307 774 544 742 1107 
C 736 1203 730 1312 538 1312 
C 326 1312 326 1191 326 1063 
L 326 179 
C 326 77 326 -64 506 -64 
C 640 -64 653 -13 730 256 
C 1082 -19 1523 -64 1786 -64 
C 2509 -64 2963 493 2963 1063 
C 2963 1511 2688 1792 2669 1818 
C 2413 2080 2291 2106 1645 2259 
C 1498 2298 1248 2355 1197 2368 
C 934 2464 723 2688 723 2976 
C 723 3315 1043 3629 1485 3629 
C 1965 3629 2291 3373 2374 2829 
C 2394 2707 2406 2624 2586 2624 
C 2797 2624 2797 2739 2797 2867 
L 2797 3757 
z
" transform="scale(0.015625)"/>
       <path id="CMTT12-74" d="M 1382 2381 
L 2419 2381 
C 2509 2381 2675 2381 2675 2567 
C 2675 2752 2509 2752 2419 2752 
L 1382 2752 
L 1382 3285 
C 1382 3402 1382 3552 1178 3552 
C 966 3552 966 3402 966 3285 
L 966 2752 
L 422 2752 
C 333 2752 160 2752 160 2567 
C 160 2381 326 2381 416 2381 
L 966 2381 
L 966 776 
C 966 184 1376 -32 1837 -32 
C 2182 -32 2816 139 2816 790 
C 2816 918 2816 1058 2605 1058 
C 2400 1058 2400 918 2400 785 
C 2394 403 2029 339 1882 339 
C 1382 339 1382 657 1382 809 
L 1382 2381 
z
" transform="scale(0.015625)"/>
       <path id="CMTT12-65" d="M 2662 1248 
C 2797 1248 2918 1248 2918 1482 
C 2918 2221 2496 2816 1696 2816 
C 954 2816 358 2177 358 1398 
C 358 594 1005 -32 1792 -32 
C 2618 -32 2918 541 2918 709 
C 2918 748 2906 891 2707 891 
C 2586 891 2547 845 2509 748 
C 2349 371 1933 339 1811 339 
C 1280 339 858 748 787 1248 
L 2662 1248 
z
M 794 1600 
C 877 2132 1293 2445 1696 2445 
C 2336 2445 2470 1913 2496 1600 
L 794 1600 
z
" transform="scale(0.015625)"/>
       <path id="CMTT12-70" d="M 1293 -1408 
C 1382 -1408 1549 -1408 1549 -1222 
C 1549 -1037 1382 -1037 1293 -1037 
L 1030 -1037 
L 1030 326 
C 1184 153 1421 -32 1779 -32 
C 2458 -32 3053 579 3053 1395 
C 3053 2186 2515 2816 1850 2816 
C 1382 2816 1088 2533 1030 2469 
C 1030 2664 1030 2752 774 2752 
L 352 2752 
C 262 2752 96 2752 96 2567 
C 96 2381 262 2381 352 2381 
L 614 2381 
L 614 -1037 
L 352 -1037 
C 262 -1037 96 -1037 96 -1222 
C 96 -1408 262 -1408 352 -1408 
L 1293 -1408 
z
M 1030 1717 
C 1030 2084 1389 2445 1805 2445 
C 2266 2445 2637 1974 2637 1395 
C 2637 777 2202 339 1747 339 
C 1267 339 1030 886 1030 1208 
L 1030 1717 
z
" transform="scale(0.015625)"/>
       <path id="CMTT12-73" d="M 2688 2573 
C 2688 2675 2688 2816 2509 2816 
C 2355 2816 2317 2669 2317 2662 
C 2061 2816 1766 2816 1638 2816 
C 595 2816 454 2286 454 2069 
C 454 1807 608 1629 826 1507 
C 1030 1392 1216 1361 1741 1278 
C 1990 1233 2502 1150 2502 799 
C 2502 562 2285 339 1690 339 
C 1280 339 1011 499 877 960 
C 845 1049 826 1120 666 1120 
C 454 1120 454 998 454 870 
L 454 211 
C 454 108 454 -32 634 -32 
C 710 -32 768 -32 864 230 
C 1158 -32 1491 -32 1690 -32 
C 2874 -32 2874 734 2874 798 
C 2874 1461 2080 1596 1773 1640 
C 1210 1736 826 1800 826 2068 
C 826 2241 1024 2445 1626 2445 
C 2234 2445 2259 2157 2272 1990 
C 2285 1862 2400 1843 2477 1843 
C 2688 1843 2688 1958 2688 2086 
L 2688 2573 
z
" transform="scale(0.015625)"/>
      </defs>
      <use xlink:href="#CMTT12-53" transform="scale(0.996264)"/>
      <use xlink:href="#CMTT12-74" transform="translate(51.266111 0) scale(0.996264)"/>
      <use xlink:href="#CMTT12-65" transform="translate(102.532222 0) scale(0.996264)"/>
      <use xlink:href="#CMTT12-70" transform="translate(153.798333 0) scale(0.996264)"/>
      <use xlink:href="#CMTT12-73" transform="translate(205.064443 0) scale(0.996264)"/>
     </g>
    </g>
   </g>
   <g id="matplotlib.axis_2">
    <g id="ytick_1">
     <g id="line2d_5">
      <path d="M 49.5491 153.468152 
L 228.1091 153.468152 
" clip-path="url(#p05cc989a58)" style="fill: none; stroke-dasharray: 2.96,1.28; stroke-dashoffset: 0; stroke: #dddddd; stroke-width: 0.8"/>
     </g>
     <g id="line2d_6">
      <defs>
       <path id="m4f8ac0980b" d="M 0 0 
L -3.5 0 
" style="stroke: #000000; stroke-width: 0.8"/>
      </defs>
      <g>
       <use xlink:href="#m4f8ac0980b" x="49.5491" y="153.468152" style="stroke: #000000; stroke-width: 0.8"/>
      </g>
     </g>
     <g id="text_4">
      <!-- 0 -->
      <g transform="translate(34.346523 158.338772) scale(0.16 -0.16)">
       <use xlink:href="#CMTT12-30" transform="scale(0.996264)"/>
      </g>
     </g>
    </g>
    <g id="ytick_2">
     <g id="line2d_7">
      <path d="M 49.5491 96.364703 
L 228.1091 96.364703 
" clip-path="url(#p05cc989a58)" style="fill: none; stroke-dasharray: 2.96,1.28; stroke-dashoffset: 0; stroke: #dddddd; stroke-width: 0.8"/>
     </g>
     <g id="line2d_8">
      <g>
       <use xlink:href="#m4f8ac0980b" x="49.5491" y="96.364703" style="stroke: #000000; stroke-width: 0.8"/>
      </g>
     </g>
     <g id="text_5">
      <!-- 20 -->
      <g transform="translate(26.143945 101.235324) scale(0.16 -0.16)">
       <defs>
        <path id="CMTT12-32" d="M 2227 1403 
C 2317 1479 2963 2026 2963 2734 
C 2963 3459 2362 3968 1562 3968 
C 819 3968 326 3413 326 2879 
C 326 2611 550 2592 589 2592 
C 704 2592 845 2680 845 2852 
C 845 2973 800 3011 768 3037 
C 858 3374 1152 3597 1523 3597 
C 2067 3597 2547 3285 2547 2732 
C 2547 2234 2170 1852 1824 1554 
L 416 337 
C 346 280 326 261 326 185 
C 326 0 499 0 589 0 
L 2822 0 
C 2963 38 2963 165 2963 261 
L 2963 396 
C 2963 510 2963 657 2758 657 
C 2547 657 2547 524 2547 371 
L 1005 371 
L 2227 1403 
z
" transform="scale(0.015625)"/>
       </defs>
       <use xlink:href="#CMTT12-32" transform="scale(0.996264)"/>
       <use xlink:href="#CMTT12-30" transform="translate(51.266111 0) scale(0.996264)"/>
      </g>
     </g>
    </g>
    <g id="ytick_3">
     <g id="line2d_9">
      <path d="M 49.5491 39.261255 
L 228.1091 39.261255 
" clip-path="url(#p05cc989a58)" style="fill: none; stroke-dasharray: 2.96,1.28; stroke-dashoffset: 0; stroke: #dddddd; stroke-width: 0.8"/>
     </g>
     <g id="line2d_10">
      <g>
       <use xlink:href="#m4f8ac0980b" x="49.5491" y="39.261255" style="stroke: #000000; stroke-width: 0.8"/>
      </g>
     </g>
     <g id="text_6">
      <!-- 40 -->
      <g transform="translate(26.143945 44.131876) scale(0.16 -0.16)">
       <defs>
        <path id="CMTT12-34" d="M 243 1547 
C 186 1464 186 1451 186 1337 
C 186 1114 269 1088 442 1088 
L 2010 1088 
L 2010 371 
L 1626 371 
C 1536 371 1370 371 1370 186 
C 1370 0 1536 0 1626 0 
L 2752 0 
C 2842 0 3008 0 3008 186 
C 3008 371 2842 371 2752 371 
L 2368 371 
L 2368 1088 
L 2848 1088 
C 2938 1088 3104 1088 3104 1274 
C 3104 1459 2938 1459 2848 1459 
L 2368 1459 
L 2368 3739 
C 2368 3949 2323 4000 2106 4000 
L 1958 4000 
C 1805 4000 1773 3994 1696 3873 
L 243 1547 
z
M 614 1459 
L 2010 3688 
L 2010 1459 
L 614 1459 
z
" transform="scale(0.015625)"/>
       </defs>
       <use xlink:href="#CMTT12-34" transform="scale(0.996264)"/>
       <use xlink:href="#CMTT12-30" transform="translate(51.266111 0) scale(0.996264)"/>
      </g>
     </g>
    </g>
    <g id="text_7">
     <!-- \texttt{Success Rate} -->
     <g transform="translate(18.158889 150.875506) rotate(-90) scale(0.18 -0.18)">
      <defs>
       <path id="CMTT12-75" d="M 2675 2491 
C 2675 2688 2637 2752 2419 2752 
L 1997 2752 
C 1907 2752 1741 2752 1741 2567 
C 1741 2381 1907 2381 1997 2381 
L 2259 2381 
L 2259 1000 
C 2259 479 1824 339 1536 339 
C 1030 339 1030 568 1030 766 
L 1030 2491 
C 1030 2688 992 2752 774 2752 
L 352 2752 
C 262 2752 96 2752 96 2567 
C 96 2381 262 2381 352 2381 
L 614 2381 
L 614 732 
C 614 146 998 -32 1491 -32 
C 1882 -32 2125 127 2253 235 
C 2253 0 2406 0 2515 0 
L 2938 0 
C 3027 0 3194 0 3194 186 
C 3194 371 3027 371 2938 371 
L 2675 371 
L 2675 2491 
z
" transform="scale(0.015625)"/>
       <path id="CMTT12-63" d="M 2918 702 
C 2918 868 2758 868 2707 868 
C 2560 868 2534 817 2502 728 
C 2362 377 2048 339 1894 339 
C 1350 339 890 792 890 1385 
C 890 1711 1075 2445 1914 2445 
C 2086 2445 2221 2432 2278 2426 
C 2323 2413 2330 2405 2330 2373 
C 2349 2107 2547 2107 2586 2107 
C 2726 2107 2848 2203 2848 2375 
C 2848 2816 2202 2816 1920 2816 
C 826 2816 474 1922 474 1385 
C 474 607 1069 -32 1837 -32 
C 2694 -32 2918 600 2918 702 
z
" transform="scale(0.015625)"/>
       <path id="CMTT12-52" d="M 2176 1950 
C 2528 2153 2720 2497 2720 2842 
C 2720 3370 2253 3904 1498 3904 
L 410 3904 
C 314 3904 154 3904 154 3719 
C 154 3533 320 3533 410 3533 
L 550 3533 
L 550 371 
L 410 371 
C 320 371 154 371 154 186 
C 154 0 314 0 410 0 
L 1107 0 
C 1197 0 1370 0 1370 186 
C 1370 371 1197 371 1107 371 
L 966 371 
L 966 1792 
L 1472 1792 
C 1587 1792 1786 1792 1990 1612 
C 2138 1477 2138 1330 2138 1054 
C 2138 604 2138 418 2259 200 
C 2362 32 2528 -64 2726 -64 
C 3149 -64 3277 374 3277 603 
C 3277 730 3219 812 3066 812 
C 2874 812 2861 661 2861 604 
C 2861 560 2842 307 2726 307 
C 2554 307 2554 588 2554 951 
C 2554 1383 2554 1421 2490 1580 
C 2406 1765 2253 1893 2176 1950 
z
M 1434 2163 
L 966 2163 
L 966 3533 
L 1434 3533 
C 2022 3533 2304 3156 2304 2848 
C 2304 2540 2022 2163 1434 2163 
z
" transform="scale(0.015625)"/>
       <path id="CMTT12-61" d="M 2650 1816 
C 2650 2303 2285 2816 1421 2816 
C 1152 2816 531 2816 531 2380 
C 531 2210 653 2115 794 2115 
C 832 2115 1043 2115 1050 2388 
C 1050 2419 1056 2426 1190 2438 
C 1267 2445 1350 2445 1427 2445 
C 1574 2445 1792 2445 2003 2282 
C 2234 2100 2234 1916 2234 1728 
C 1856 1728 1485 1728 1088 1599 
C 768 1489 358 1256 358 816 
C 358 356 762 -32 1357 -32 
C 1562 -32 1958 0 2291 226 
C 2419 0 2739 0 2982 0 
C 3136 0 3290 0 3290 183 
C 3290 365 3123 365 3034 365 
C 2867 365 2739 378 2650 417 
L 2650 1816 
z
M 2234 851 
C 2234 704 2234 569 1971 448 
C 1747 339 1446 339 1427 339 
C 1050 339 774 544 774 806 
C 774 1184 1459 1401 2234 1401 
L 2234 851 
z
" transform="scale(0.015625)"/>
      </defs>
      <use xlink:href="#CMTT12-53" transform="scale(0.996264)"/>
      <use xlink:href="#CMTT12-75" transform="translate(51.266111 0) scale(0.996264)"/>
      <use xlink:href="#CMTT12-63" transform="translate(102.532222 0) scale(0.996264)"/>
      <use xlink:href="#CMTT12-63" transform="translate(153.798333 0) scale(0.996264)"/>
      <use xlink:href="#CMTT12-65" transform="translate(205.064443 0) scale(0.996264)"/>
      <use xlink:href="#CMTT12-73" transform="translate(256.330554 0) scale(0.996264)"/>
      <use xlink:href="#CMTT12-73" transform="translate(307.596665 0) scale(0.996264)"/>
      <use xlink:href="#CMTT12-52" transform="translate(410.128887 0) scale(0.996264)"/>
      <use xlink:href="#CMTT12-61" transform="translate(461.394998 0) scale(0.996264)"/>
      <use xlink:href="#CMTT12-74" transform="translate(512.661108 0) scale(0.996264)"/>
      <use xlink:href="#CMTT12-65" transform="translate(563.927219 0) scale(0.996264)"/>
     </g>
    </g>
   </g>
   <g id="line2d_11"/>
   <g id="line2d_12"/>
   <g id="patch_3">
    <path d="M 49.5491 159.264152 
L 49.5491 31.752152 
" style="fill: none; stroke: #000000; stroke-width: 0.8; stroke-linejoin: miter; stroke-linecap: square"/>
   </g>
   <g id="patch_4">
    <path d="M 228.1091 159.264152 
L 228.1091 31.752152 
" style="fill: none; stroke: #000000; stroke-width: 0.8; stroke-linejoin: miter; stroke-linecap: square"/>
   </g>
   <g id="patch_5">
    <path d="M 49.5491 159.264152 
L 228.1091 159.264152 
" style="fill: none; stroke: #000000; stroke-width: 0.8; stroke-linejoin: miter; stroke-linecap: square"/>
   </g>
   <g id="patch_6">
    <path d="M 49.5491 31.752152 
L 228.1091 31.752152 
" style="fill: none; stroke: #000000; stroke-width: 0.8; stroke-linejoin: miter; stroke-linecap: square"/>
   </g>
   <g id="text_8">
    <!-- antmaze-large -->
    <g transform="translate(72.183156 19.376552) scale(0.2 -0.2)">
     <defs>
      <path id="CMTT12-6e" d="M 2675 1879 
C 2675 2507 2381 2803 1856 2803 
C 1421 2803 1139 2560 1030 2438 
C 1030 2666 1030 2752 774 2752 
L 352 2752 
C 262 2752 96 2752 96 2567 
C 96 2381 262 2381 352 2381 
L 614 2381 
L 614 371 
L 352 371 
C 262 371 96 371 96 186 
C 96 0 262 0 352 0 
L 1293 0 
C 1382 0 1549 0 1549 186 
C 1549 371 1382 371 1293 371 
L 1030 371 
L 1030 1533 
C 1030 2155 1466 2432 1811 2432 
C 2182 2432 2259 2219 2259 1854 
L 2259 371 
L 1997 371 
C 1907 371 1741 371 1741 186 
C 1741 0 1907 0 1997 0 
L 2938 0 
C 3027 0 3194 0 3194 186 
C 3194 371 3027 371 2938 371 
L 2675 371 
L 2675 1879 
z
" transform="scale(0.015625)"/>
      <path id="CMTT12-6d" d="M 2899 1943 
C 2899 2084 2899 2803 2336 2803 
C 2112 2803 1894 2700 1722 2463 
C 1683 2559 1542 2803 1235 2803 
C 947 2803 749 2613 698 2555 
C 691 2752 557 2752 442 2752 
L 250 2752 
C 160 2752 -6 2752 -6 2567 
C -6 2381 141 2381 339 2381 
L 339 371 
C 134 371 -6 371 -6 186 
C -6 0 160 0 250 0 
L 787 0 
C 877 0 1043 0 1043 186 
C 1043 371 896 371 698 371 
L 698 1552 
C 698 2091 928 2432 1210 2432 
C 1389 2432 1440 2207 1440 1905 
L 1440 371 
C 1331 371 1158 371 1158 186 
C 1158 0 1331 0 1421 0 
L 1888 0 
C 1978 0 2144 0 2144 186 
C 2144 371 1997 371 1798 371 
L 1798 1552 
C 1798 2091 2029 2432 2310 2432 
C 2490 2432 2541 2207 2541 1905 
L 2541 371 
C 2432 371 2259 371 2259 186 
C 2259 0 2432 0 2522 0 
L 2989 0 
C 3078 0 3245 0 3245 186 
C 3245 371 3098 371 2899 371 
L 2899 1943 
z
" transform="scale(0.015625)"/>
      <path id="CMTT12-7a" d="M 2861 2331 
C 2938 2400 2963 2426 2963 2541 
C 2963 2752 2822 2752 2701 2752 
L 570 2752 
C 358 2752 307 2701 307 2490 
L 307 2235 
C 307 2120 307 1973 512 1973 
C 723 1973 723 2113 723 2234 
L 723 2381 
L 2342 2381 
L 307 421 
C 230 352 205 326 205 211 
C 205 0 346 0 467 0 
L 2726 0 
C 2938 0 2982 58 2982 262 
L 2982 588 
C 2982 703 2982 850 2778 850 
C 2566 850 2566 709 2566 589 
L 2566 371 
L 826 371 
L 2861 2331 
z
" transform="scale(0.015625)"/>
      <path id="CMTT12-2d" d="M 2650 1728 
C 2733 1728 2938 1728 2938 1933 
C 2938 2144 2739 2144 2650 2144 
L 640 2144 
C 557 2144 352 2144 352 1939 
C 352 1728 550 1728 640 1728 
L 2650 1728 
z
" transform="scale(0.015625)"/>
      <path id="CMTT12-6c" d="M 1856 3642 
C 1856 3840 1818 3904 1600 3904 
L 659 3904 
C 570 3904 403 3904 403 3719 
C 403 3533 570 3533 659 3533 
L 1440 3533 
L 1440 371 
L 659 371 
C 570 371 403 371 403 186 
C 403 0 570 0 659 0 
L 2637 0 
C 2726 0 2893 0 2893 186 
C 2893 371 2726 371 2637 371 
L 1856 371 
L 1856 3642 
z
" transform="scale(0.015625)"/>
      <path id="CMTT12-72" d="M 1382 1212 
C 1382 1976 1920 2432 2464 2432 
C 2496 2432 2534 2432 2566 2425 
C 2586 2185 2765 2165 2810 2165 
C 2957 2165 3059 2275 3059 2418 
C 3059 2698 2790 2803 2470 2803 
C 2042 2803 1677 2607 1382 2241 
L 1382 2491 
C 1382 2688 1344 2752 1126 2752 
L 480 2752 
C 390 2752 224 2752 224 2567 
C 224 2381 390 2381 480 2381 
L 966 2381 
L 966 371 
L 480 371 
C 390 371 224 371 224 186 
C 224 0 390 0 480 0 
L 2054 0 
C 2144 0 2310 0 2310 186 
C 2310 371 2144 371 2054 371 
L 1382 371 
L 1382 1212 
z
" transform="scale(0.015625)"/>
      <path id="CMTT12-67" d="M 1216 422 
C 1139 422 845 422 845 769 
C 845 891 864 916 890 967 
C 1018 877 1229 794 1459 794 
C 2042 794 2490 1261 2490 1810 
C 2490 1970 2451 2169 2317 2380 
C 2483 2459 2637 2477 2733 2477 
C 2771 2304 2957 2304 2963 2304 
C 3040 2304 3200 2355 3200 2547 
C 3200 2669 3104 2880 2746 2880 
C 2630 2880 2342 2852 2074 2618 
C 1862 2765 1645 2816 1466 2816 
C 883 2816 435 2353 435 1806 
C 435 1666 467 1425 646 1197 
C 525 1018 506 826 506 749 
C 506 525 614 346 666 288 
C 314 95 186 -252 186 -502 
C 186 -1035 832 -1440 1645 -1440 
C 2458 -1440 3104 -1042 3104 -502 
C 3104 422 1971 422 1760 422 
L 1216 422 
z
M 1459 1152 
C 1139 1152 851 1431 851 1805 
C 851 2179 1146 2457 1459 2457 
C 1798 2457 2074 2166 2074 1805 
C 2074 1443 1798 1152 1459 1152 
z
M 1645 -1081 
C 1018 -1081 550 -799 550 -502 
C 550 -405 582 -180 819 -33 
C 966 64 1030 64 1472 64 
C 2035 64 2739 64 2739 -502 
C 2739 -799 2272 -1081 1645 -1081 
z
" transform="scale(0.015625)"/>
     </defs>
     <use xlink:href="#CMTT12-61" transform="scale(0.996264)"/>
     <use xlink:href="#CMTT12-6e" transform="translate(51.266111 0) scale(0.996264)"/>
     <use xlink:href="#CMTT12-74" transform="translate(102.532222 0) scale(0.996264)"/>
     <use xlink:href="#CMTT12-6d" transform="translate(153.798333 0) scale(0.996264)"/>
     <use xlink:href="#CMTT12-61" transform="translate(205.064443 0) scale(0.996264)"/>
     <use xlink:href="#CMTT12-7a" transform="translate(256.330554 0) scale(0.996264)"/>
     <use xlink:href="#CMTT12-65" transform="translate(307.596665 0) scale(0.996264)"/>
     <use xlink:href="#CMTT12-2d" transform="translate(358.862776 0) scale(0.996264)"/>
     <use xlink:href="#CMTT12-6c" transform="translate(410.128887 0) scale(0.996264)"/>
     <use xlink:href="#CMTT12-61" transform="translate(461.394998 0) scale(0.996264)"/>
     <use xlink:href="#CMTT12-72" transform="translate(512.661108 0) scale(0.996264)"/>
     <use xlink:href="#CMTT12-67" transform="translate(563.927219 0) scale(0.996264)"/>
     <use xlink:href="#CMTT12-65" transform="translate(615.19333 0) scale(0.996264)"/>
    </g>
   </g>
   <g id="line2d_13">
    <path d="M 57.665464 153.468152 
L 73.898191 147.47229 
L 90.130919 142.047462 
L 106.363646 141.19091 
L 122.596373 146.044703 
L 138.8291 143.760565 
L 155.061828 138.335738 
L 171.294555 131.768841 
L 187.527282 120.348152 
L 203.76001 112.353669 
L 219.992737 110.926083 
" clip-path="url(#p05cc989a58)" style="fill: none; stroke: #878787; stroke-width: 2; stroke-linecap: square"/>
    <defs>
     <path id="m4ddbedbef3" d="M 0 3 
C 0.795609 3 1.55874 2.683901 2.12132 2.12132 
C 2.683901 1.55874 3 0.795609 3 0 
C 3 -0.795609 2.683901 -1.55874 2.12132 -2.12132 
C 1.55874 -2.683901 0.795609 -3 0 -3 
C -0.795609 -3 -1.55874 -2.683901 -2.12132 -2.12132 
C -2.683901 -1.55874 -3 -0.795609 -3 0 
C -3 0.795609 -2.683901 1.55874 -2.12132 2.12132 
C -1.55874 2.683901 -0.795609 3 0 3 
z
" style="stroke: #878787; stroke-width: 1.5"/>
    </defs>
    <g clip-path="url(#p05cc989a58)">
     <use xlink:href="#m4ddbedbef3" x="57.665464" y="153.468152" style="fill: #e7e7e7; stroke: #878787; stroke-width: 1.5"/>
     <use xlink:href="#m4ddbedbef3" x="73.898191" y="147.47229" style="fill: #e7e7e7; stroke: #878787; stroke-width: 1.5"/>
     <use xlink:href="#m4ddbedbef3" x="90.130919" y="142.047462" style="fill: #e7e7e7; stroke: #878787; stroke-width: 1.5"/>
     <use xlink:href="#m4ddbedbef3" x="106.363646" y="141.19091" style="fill: #e7e7e7; stroke: #878787; stroke-width: 1.5"/>
     <use xlink:href="#m4ddbedbef3" x="122.596373" y="146.044703" style="fill: #e7e7e7; stroke: #878787; stroke-width: 1.5"/>
     <use xlink:href="#m4ddbedbef3" x="138.8291" y="143.760565" style="fill: #e7e7e7; stroke: #878787; stroke-width: 1.5"/>
     <use xlink:href="#m4ddbedbef3" x="155.061828" y="138.335738" style="fill: #e7e7e7; stroke: #878787; stroke-width: 1.5"/>
     <use xlink:href="#m4ddbedbef3" x="171.294555" y="131.768841" style="fill: #e7e7e7; stroke: #878787; stroke-width: 1.5"/>
     <use xlink:href="#m4ddbedbef3" x="187.527282" y="120.348152" style="fill: #e7e7e7; stroke: #878787; stroke-width: 1.5"/>
     <use xlink:href="#m4ddbedbef3" x="203.76001" y="112.353669" style="fill: #e7e7e7; stroke: #878787; stroke-width: 1.5"/>
     <use xlink:href="#m4ddbedbef3" x="219.992737" y="110.926083" style="fill: #e7e7e7; stroke: #878787; stroke-width: 1.5"/>
    </g>
   </g>
   <g id="line2d_14">
    <path d="M 57.665464 153.468152 
L 73.898191 100.361945 
L 90.130919 100.076428 
L 106.363646 85.515048 
L 122.596373 97.506772 
L 138.8291 86.942634 
L 155.061828 89.51229 
L 171.294555 81.517807 
L 187.527282 60.104014 
L 203.76001 72.666772 
L 219.992737 68.384014 
" clip-path="url(#p05cc989a58)" style="fill: none; stroke: #598be7; stroke-width: 2; stroke-linecap: square"/>
    <defs>
     <path id="mc3a89d26db" d="M 0 3 
C 0.795609 3 1.55874 2.683901 2.12132 2.12132 
C 2.683901 1.55874 3 0.795609 3 0 
C 3 -0.795609 2.683901 -1.55874 2.12132 -2.12132 
C 1.55874 -2.683901 0.795609 -3 0 -3 
C -0.795609 -3 -1.55874 -2.683901 -2.12132 -2.12132 
C -2.683901 -1.55874 -3 -0.795609 -3 0 
C -3 0.795609 -2.683901 1.55874 -2.12132 2.12132 
C -1.55874 2.683901 -0.795609 3 0 3 
z
" style="stroke: #598be7; stroke-width: 1.5"/>
    </defs>
    <g clip-path="url(#p05cc989a58)">
     <use xlink:href="#mc3a89d26db" x="57.665464" y="153.468152" style="fill: #dbe6fa; stroke: #598be7; stroke-width: 1.5"/>
     <use xlink:href="#mc3a89d26db" x="73.898191" y="100.361945" style="fill: #dbe6fa; stroke: #598be7; stroke-width: 1.5"/>
     <use xlink:href="#mc3a89d26db" x="90.130919" y="100.076428" style="fill: #dbe6fa; stroke: #598be7; stroke-width: 1.5"/>
     <use xlink:href="#mc3a89d26db" x="106.363646" y="85.515048" style="fill: #dbe6fa; stroke: #598be7; stroke-width: 1.5"/>
     <use xlink:href="#mc3a89d26db" x="122.596373" y="97.506772" style="fill: #dbe6fa; stroke: #598be7; stroke-width: 1.5"/>
     <use xlink:href="#mc3a89d26db" x="138.8291" y="86.942634" style="fill: #dbe6fa; stroke: #598be7; stroke-width: 1.5"/>
     <use xlink:href="#mc3a89d26db" x="155.061828" y="89.51229" style="fill: #dbe6fa; stroke: #598be7; stroke-width: 1.5"/>
     <use xlink:href="#mc3a89d26db" x="171.294555" y="81.517807" style="fill: #dbe6fa; stroke: #598be7; stroke-width: 1.5"/>
     <use xlink:href="#mc3a89d26db" x="187.527282" y="60.104014" style="fill: #dbe6fa; stroke: #598be7; stroke-width: 1.5"/>
     <use xlink:href="#mc3a89d26db" x="203.76001" y="72.666772" style="fill: #dbe6fa; stroke: #598be7; stroke-width: 1.5"/>
     <use xlink:href="#mc3a89d26db" x="219.992737" y="68.384014" style="fill: #dbe6fa; stroke: #598be7; stroke-width: 1.5"/>
    </g>
   </g>
  </g>
  <g id="axes_2">
   <g id="patch_7">
    <path d="M 276.3203 159.264152 
L 454.8803 159.264152 
L 454.8803 31.752152 
L 276.3203 31.752152 
z
" style="fill: #ffffff"/>
   </g>
   <g id="FillBetweenPolyCollection_3">
    <defs>
     <path id="m1ddc8a021a" d="M 284.436664 -94.985856 
L 284.436664 -94.985856 
L 300.669391 -99.807806 
L 316.902119 -112.373856 
L 333.134846 -138.133856 
L 349.367573 -137.167856 
L 365.6003 -149.725856 
L 381.833028 -159.707856 
L 398.065755 -147.149856 
L 414.298482 -153.911856 
L 430.53121 -168.401856 
L 446.763937 -154.877856 
L 446.763937 -186.433856 
L 446.763937 -186.433856 
L 430.53121 -185.467856 
L 414.298482 -174.197856 
L 398.065755 -160.673856 
L 381.833028 -170.333856 
L 365.6003 -167.757856 
L 349.367573 -158.419856 
L 333.134846 -150.369856 
L 316.902119 -132.981856 
L 300.669391 -102.713856 
L 284.436664 -94.985856 
z
" style="stroke: #878787; stroke-opacity: 0.15"/>
    </defs>
    <g clip-path="url(#p27159e7527)">
     <use xlink:href="#m1ddc8a021a" x="0" y="248.454008" style="fill: #878787; fill-opacity: 0.15; stroke: #878787; stroke-opacity: 0.15"/>
    </g>
   </g>
   <g id="FillBetweenPolyCollection_4">
    <defs>
     <path id="md504d93ccd" d="M 284.436664 -94.985856 
L 284.436664 -94.985856 
L 300.669391 -100.137856 
L 316.902119 -113.339856 
L 333.134846 -129.439856 
L 349.367573 -165.181856 
L 365.6003 -178.383856 
L 381.833028 -171.943856 
L 398.065755 -187.077856 
L 414.298482 -191.585856 
L 430.53121 -183.213856 
L 446.763937 -184.501856 
L 446.763937 -207.041856 
L 446.763937 -207.041856 
L 430.53121 -199.957856 
L 414.298482 -210.905856 
L 398.065755 -207.685856 
L 381.833028 -186.755856 
L 365.6003 -196.737856 
L 349.367573 -176.773856 
L 333.134846 -147.793856 
L 316.902119 -126.863856 
L 300.669391 -105.933856 
L 284.436664 -94.985856 
z
" style="stroke: #598be7; stroke-opacity: 0.15"/>
    </defs>
    <g clip-path="url(#p27159e7527)">
     <use xlink:href="#md504d93ccd" x="0" y="248.454008" style="fill: #598be7; fill-opacity: 0.15; stroke: #598be7; stroke-opacity: 0.15"/>
    </g>
   </g>
   <g id="matplotlib.axis_3">
    <g id="xtick_3">
     <g id="line2d_15">
      <path d="M 284.436664 159.264152 
L 284.436664 31.752152 
" clip-path="url(#p27159e7527)" style="fill: none; stroke-dasharray: 2.96,1.28; stroke-dashoffset: 0; stroke: #dddddd; stroke-width: 0.8"/>
     </g>
     <g id="line2d_16">
      <g>
       <use xlink:href="#mbbc3d1dacb" x="284.436664" y="159.264152" style="stroke: #000000; stroke-width: 0.8"/>
      </g>
     </g>
     <g id="text_9">
      <!-- 0 -->
      <g transform="translate(280.335375 176.005393) scale(0.16 -0.16)">
       <use xlink:href="#CMTT12-30" transform="scale(0.996264)"/>
      </g>
     </g>
    </g>
    <g id="xtick_4">
     <g id="line2d_17">
      <path d="M 446.763937 159.264152 
L 446.763937 31.752152 
" clip-path="url(#p27159e7527)" style="fill: none; stroke-dasharray: 2.96,1.28; stroke-dashoffset: 0; stroke: #dddddd; stroke-width: 0.8"/>
     </g>
     <g id="line2d_18">
      <g>
       <use xlink:href="#mbbc3d1dacb" x="446.763937" y="159.264152" style="stroke: #000000; stroke-width: 0.8"/>
      </g>
     </g>
     <g id="text_10">
      <!-- 1M -->
      <g transform="translate(438.561359 176.005393) scale(0.16 -0.16)">
       <use xlink:href="#CMTT12-31" transform="scale(0.996264)"/>
       <use xlink:href="#CMTT12-4d" transform="translate(51.266111 0) scale(0.996264)"/>
      </g>
     </g>
    </g>
    <g id="text_11">
     <!-- \texttt{Steps} -->
     <g transform="translate(342.53057 194.506556) scale(0.18 -0.18)">
      <use xlink:href="#CMTT12-53" transform="scale(0.996264)"/>
      <use xlink:href="#CMTT12-74" transform="translate(51.266111 0) scale(0.996264)"/>
      <use xlink:href="#CMTT12-65" transform="translate(102.532222 0) scale(0.996264)"/>
      <use xlink:href="#CMTT12-70" transform="translate(153.798333 0) scale(0.996264)"/>
      <use xlink:href="#CMTT12-73" transform="translate(205.064443 0) scale(0.996264)"/>
     </g>
    </g>
   </g>
   <g id="matplotlib.axis_4">
    <g id="ytick_4">
     <g id="line2d_19">
      <path d="M 276.3203 153.468152 
L 454.8803 153.468152 
" clip-path="url(#p27159e7527)" style="fill: none; stroke-dasharray: 2.96,1.28; stroke-dashoffset: 0; stroke: #dddddd; stroke-width: 0.8"/>
     </g>
     <g id="line2d_20">
      <g>
       <use xlink:href="#m4f8ac0980b" x="276.3203" y="153.468152" style="stroke: #000000; stroke-width: 0.8"/>
      </g>
     </g>
     <g id="text_12">
      <!-- 0 -->
      <g transform="translate(261.117723 158.338772) scale(0.16 -0.16)">
       <use xlink:href="#CMTT12-30" transform="scale(0.996264)"/>
      </g>
     </g>
    </g>
    <g id="ytick_5">
     <g id="line2d_21">
      <path d="M 276.3203 89.068152 
L 454.8803 89.068152 
" clip-path="url(#p27159e7527)" style="fill: none; stroke-dasharray: 2.96,1.28; stroke-dashoffset: 0; stroke: #dddddd; stroke-width: 0.8"/>
     </g>
     <g id="line2d_22">
      <g>
       <use xlink:href="#m4f8ac0980b" x="276.3203" y="89.068152" style="stroke: #000000; stroke-width: 0.8"/>
      </g>
     </g>
     <g id="text_13">
      <!-- 20 -->
      <g transform="translate(252.915145 93.938772) scale(0.16 -0.16)">
       <use xlink:href="#CMTT12-32" transform="scale(0.996264)"/>
       <use xlink:href="#CMTT12-30" transform="translate(51.266111 0) scale(0.996264)"/>
      </g>
     </g>
    </g>
   </g>
   <g id="line2d_23"/>
   <g id="line2d_24"/>
   <g id="patch_8">
    <path d="M 276.3203 159.264152 
L 276.3203 31.752152 
" style="fill: none; stroke: #000000; stroke-width: 0.8; stroke-linejoin: miter; stroke-linecap: square"/>
   </g>
   <g id="patch_9">
    <path d="M 454.8803 159.264152 
L 454.8803 31.752152 
" style="fill: none; stroke: #000000; stroke-width: 0.8; stroke-linejoin: miter; stroke-linecap: square"/>
   </g>
   <g id="patch_10">
    <path d="M 276.3203 159.264152 
L 454.8803 159.264152 
" style="fill: none; stroke: #000000; stroke-width: 0.8; stroke-linejoin: miter; stroke-linecap: square"/>
   </g>
   <g id="patch_11">
    <path d="M 276.3203 31.752152 
L 454.8803 31.752152 
" style="fill: none; stroke: #000000; stroke-width: 0.8; stroke-linejoin: miter; stroke-linecap: square"/>
   </g>
   <g id="text_14">
    <!-- cube-double -->
    <g transform="translate(309.207578 19.376552) scale(0.2 -0.2)">
     <defs>
      <path id="CMTT12-62" d="M 1030 3644 
C 1030 3841 992 3904 774 3904 
L 352 3904 
C 262 3904 96 3904 96 3719 
C 96 3533 262 3533 352 3533 
L 614 3533 
L 614 262 
C 614 147 614 0 826 0 
C 1030 0 1030 137 1030 326 
C 1184 153 1421 -32 1779 -32 
C 2458 -32 3053 576 3053 1388 
C 3053 2176 2515 2803 1850 2803 
C 1382 2803 1088 2522 1030 2458 
L 1030 3644 
z
M 1030 1708 
C 1030 2073 1389 2432 1805 2432 
C 2266 2432 2637 1964 2637 1388 
C 2637 774 2202 339 1747 339 
C 1267 339 1030 883 1030 1203 
L 1030 1708 
z
" transform="scale(0.015625)"/>
      <path id="CMTT12-64" d="M 2675 3642 
C 2675 3840 2637 3904 2419 3904 
L 1997 3904 
C 1907 3904 1741 3904 1741 3719 
C 1741 3533 1907 3533 1997 3533 
L 2259 3533 
L 2259 2483 
C 2157 2585 1894 2803 1504 2803 
C 826 2803 237 2188 237 1382 
C 237 595 787 -32 1446 -32 
C 1862 -32 2138 215 2259 355 
C 2259 84 2259 0 2515 0 
L 2938 0 
C 3027 0 3194 0 3194 186 
C 3194 371 3027 371 2938 371 
L 2675 371 
L 2675 3642 
z
M 2259 1222 
C 2259 864 1965 339 1485 339 
C 1024 339 653 806 653 1382 
C 653 1996 1088 2432 1542 2432 
C 1958 2432 2259 2054 2259 1721 
L 2259 1222 
z
" transform="scale(0.015625)"/>
      <path id="CMTT12-6f" d="M 2918 1385 
C 2918 2183 2336 2816 1645 2816 
C 954 2816 371 2183 371 1385 
C 371 581 960 -32 1645 -32 
C 2330 -32 2918 581 2918 1385 
z
M 1645 339 
C 1184 339 787 824 787 1430 
C 787 2023 1197 2445 1645 2445 
C 2093 2445 2502 2023 2502 1430 
C 2502 818 2106 339 1645 339 
z
" transform="scale(0.015625)"/>
     </defs>
     <use xlink:href="#CMTT12-63" transform="scale(0.996264)"/>
     <use xlink:href="#CMTT12-75" transform="translate(51.266111 0) scale(0.996264)"/>
     <use xlink:href="#CMTT12-62" transform="translate(102.532222 0) scale(0.996264)"/>
     <use xlink:href="#CMTT12-65" transform="translate(153.798333 0) scale(0.996264)"/>
     <use xlink:href="#CMTT12-2d" transform="translate(205.064443 0) scale(0.996264)"/>
     <use xlink:href="#CMTT12-64" transform="translate(256.330554 0) scale(0.996264)"/>
     <use xlink:href="#CMTT12-6f" transform="translate(307.596665 0) scale(0.996264)"/>
     <use xlink:href="#CMTT12-75" transform="translate(358.862776 0) scale(0.996264)"/>
     <use xlink:href="#CMTT12-62" transform="translate(410.128887 0) scale(0.996264)"/>
     <use xlink:href="#CMTT12-6c" transform="translate(461.394998 0) scale(0.996264)"/>
     <use xlink:href="#CMTT12-65" transform="translate(512.661108 0) scale(0.996264)"/>
    </g>
   </g>
   <g id="line2d_25">
    <path d="M 284.436664 153.468152 
L 300.669391 147.028152 
L 316.902119 125.776152 
L 333.134846 104.846152 
L 349.367573 102.592152 
L 365.6003 90.356152 
L 381.833028 81.984152 
L 398.065755 94.542152 
L 414.298482 85.204152 
L 430.53121 72.324152 
L 446.763937 74.900152 
" clip-path="url(#p27159e7527)" style="fill: none; stroke: #878787; stroke-width: 2; stroke-linecap: square"/>
    <g clip-path="url(#p27159e7527)">
     <use xlink:href="#m4ddbedbef3" x="284.436664" y="153.468152" style="fill: #e7e7e7; stroke: #878787; stroke-width: 1.5"/>
     <use xlink:href="#m4ddbedbef3" x="300.669391" y="147.028152" style="fill: #e7e7e7; stroke: #878787; stroke-width: 1.5"/>
     <use xlink:href="#m4ddbedbef3" x="316.902119" y="125.776152" style="fill: #e7e7e7; stroke: #878787; stroke-width: 1.5"/>
     <use xlink:href="#m4ddbedbef3" x="333.134846" y="104.846152" style="fill: #e7e7e7; stroke: #878787; stroke-width: 1.5"/>
     <use xlink:href="#m4ddbedbef3" x="349.367573" y="102.592152" style="fill: #e7e7e7; stroke: #878787; stroke-width: 1.5"/>
     <use xlink:href="#m4ddbedbef3" x="365.6003" y="90.356152" style="fill: #e7e7e7; stroke: #878787; stroke-width: 1.5"/>
     <use xlink:href="#m4ddbedbef3" x="381.833028" y="81.984152" style="fill: #e7e7e7; stroke: #878787; stroke-width: 1.5"/>
     <use xlink:href="#m4ddbedbef3" x="398.065755" y="94.542152" style="fill: #e7e7e7; stroke: #878787; stroke-width: 1.5"/>
     <use xlink:href="#m4ddbedbef3" x="414.298482" y="85.204152" style="fill: #e7e7e7; stroke: #878787; stroke-width: 1.5"/>
     <use xlink:href="#m4ddbedbef3" x="430.53121" y="72.324152" style="fill: #e7e7e7; stroke: #878787; stroke-width: 1.5"/>
     <use xlink:href="#m4ddbedbef3" x="446.763937" y="74.900152" style="fill: #e7e7e7; stroke: #878787; stroke-width: 1.5"/>
    </g>
   </g>
   <g id="line2d_26">
    <path d="M 284.436664 153.468152 
L 300.669391 145.418152 
L 316.902119 128.352152 
L 333.134846 111.608152 
L 349.367573 77.798152 
L 365.6003 61.376152 
L 381.833028 68.460152 
L 398.065755 51.072152 
L 414.298482 46.564152 
L 430.53121 56.868152 
L 446.763937 52.682152 
" clip-path="url(#p27159e7527)" style="fill: none; stroke: #598be7; stroke-width: 2; stroke-linecap: square"/>
    <g clip-path="url(#p27159e7527)">
     <use xlink:href="#mc3a89d26db" x="284.436664" y="153.468152" style="fill: #dbe6fa; stroke: #598be7; stroke-width: 1.5"/>
     <use xlink:href="#mc3a89d26db" x="300.669391" y="145.418152" style="fill: #dbe6fa; stroke: #598be7; stroke-width: 1.5"/>
     <use xlink:href="#mc3a89d26db" x="316.902119" y="128.352152" style="fill: #dbe6fa; stroke: #598be7; stroke-width: 1.5"/>
     <use xlink:href="#mc3a89d26db" x="333.134846" y="111.608152" style="fill: #dbe6fa; stroke: #598be7; stroke-width: 1.5"/>
     <use xlink:href="#mc3a89d26db" x="349.367573" y="77.798152" style="fill: #dbe6fa; stroke: #598be7; stroke-width: 1.5"/>
     <use xlink:href="#mc3a89d26db" x="365.6003" y="61.376152" style="fill: #dbe6fa; stroke: #598be7; stroke-width: 1.5"/>
     <use xlink:href="#mc3a89d26db" x="381.833028" y="68.460152" style="fill: #dbe6fa; stroke: #598be7; stroke-width: 1.5"/>
     <use xlink:href="#mc3a89d26db" x="398.065755" y="51.072152" style="fill: #dbe6fa; stroke: #598be7; stroke-width: 1.5"/>
     <use xlink:href="#mc3a89d26db" x="414.298482" y="46.564152" style="fill: #dbe6fa; stroke: #598be7; stroke-width: 1.5"/>
     <use xlink:href="#mc3a89d26db" x="430.53121" y="56.868152" style="fill: #dbe6fa; stroke: #598be7; stroke-width: 1.5"/>
     <use xlink:href="#mc3a89d26db" x="446.763937" y="52.682152" style="fill: #dbe6fa; stroke: #598be7; stroke-width: 1.5"/>
    </g>
   </g>
  </g>
  <g id="axes_3">
   <g id="patch_12">
    <path d="M 503.0915 159.264152 
L 681.6515 159.264152 
L 681.6515 31.752152 
L 503.0915 31.752152 
z
" style="fill: #ffffff"/>
   </g>
   <g id="FillBetweenPolyCollection_5">
    <defs>
     <path id="m7abd86d4e5" d="M 511.207864 -94.985856 
L 511.207864 -94.985856 
L 527.440591 -133.524622 
L 543.673319 -142.461147 
L 559.906046 -136.840911 
L 576.138773 -135.479487 
L 592.3715 -135.479487 
L 608.604228 -137.713618 
L 624.836955 -132.686823 
L 641.069682 -134.083155 
L 657.30241 -134.222788 
L 673.535137 -131.849023 
L 673.535137 -142.461147 
L 673.535137 -142.461147 
L 657.30241 -138.830684 
L 641.069682 -136.596553 
L 624.836955 -141.064815 
L 608.604228 -140.506282 
L 592.3715 -141.762981 
L 576.138773 -138.272151 
L 559.906046 -145.533078 
L 543.673319 -148.884275 
L 527.440591 -139.808116 
L 511.207864 -94.985856 
z
" style="stroke: #878787; stroke-opacity: 0.15"/>
    </defs>
    <g clip-path="url(#pe44ed471ab)">
     <use xlink:href="#m7abd86d4e5" x="0" y="248.454008" style="fill: #878787; fill-opacity: 0.15; stroke: #878787; stroke-opacity: 0.15"/>
    </g>
   </g>
   <g id="FillBetweenPolyCollection_6">
    <defs>
     <path id="mae80857cf3" d="M 511.207864 -94.985856 
L 511.207864 -94.985856 
L 527.440591 -137.573985 
L 543.673319 -179.045048 
L 559.906046 -187.702307 
L 576.138773 -187.841941 
L 592.3715 -172.203021 
L 608.604228 -191.332771 
L 624.836955 -184.490744 
L 641.069682 -189.377906 
L 657.30241 -196.638833 
L 673.535137 -189.098639 
L 673.535137 -208.368022 
L 673.535137 -208.368022 
L 657.30241 -204.877192 
L 641.069682 -210.905856 
L 624.836955 -202.782694 
L 608.604228 -201.246729 
L 592.3715 -204.039393 
L 576.138773 -201.805262 
L 559.906046 -193.846169 
L 543.673319 -188.819373 
L 527.440591 -160.753098 
L 511.207864 -94.985856 
z
" style="stroke: #598be7; stroke-opacity: 0.15"/>
    </defs>
    <g clip-path="url(#pe44ed471ab)">
     <use xlink:href="#mae80857cf3" x="0" y="248.454008" style="fill: #598be7; fill-opacity: 0.15; stroke: #598be7; stroke-opacity: 0.15"/>
    </g>
   </g>
   <g id="matplotlib.axis_5">
    <g id="xtick_5">
     <g id="line2d_27">
      <path d="M 511.207864 159.264152 
L 511.207864 31.752152 
" clip-path="url(#pe44ed471ab)" style="fill: none; stroke-dasharray: 2.96,1.28; stroke-dashoffset: 0; stroke: #dddddd; stroke-width: 0.8"/>
     </g>
     <g id="line2d_28">
      <g>
       <use xlink:href="#mbbc3d1dacb" x="511.207864" y="159.264152" style="stroke: #000000; stroke-width: 0.8"/>
      </g>
     </g>
     <g id="text_15">
      <!-- 0 -->
      <g transform="translate(507.106575 176.005393) scale(0.16 -0.16)">
       <use xlink:href="#CMTT12-30" transform="scale(0.996264)"/>
      </g>
     </g>
    </g>
    <g id="xtick_6">
     <g id="line2d_29">
      <path d="M 673.535137 159.264152 
L 673.535137 31.752152 
" clip-path="url(#pe44ed471ab)" style="fill: none; stroke-dasharray: 2.96,1.28; stroke-dashoffset: 0; stroke: #dddddd; stroke-width: 0.8"/>
     </g>
     <g id="line2d_30">
      <g>
       <use xlink:href="#mbbc3d1dacb" x="673.535137" y="159.264152" style="stroke: #000000; stroke-width: 0.8"/>
      </g>
     </g>
     <g id="text_16">
      <!-- 1M -->
      <g transform="translate(665.332559 176.005393) scale(0.16 -0.16)">
       <use xlink:href="#CMTT12-31" transform="scale(0.996264)"/>
       <use xlink:href="#CMTT12-4d" transform="translate(51.266111 0) scale(0.996264)"/>
      </g>
     </g>
    </g>
    <g id="text_17">
     <!-- \texttt{Steps} -->
     <g transform="translate(569.30177 194.506556) scale(0.18 -0.18)">
      <use xlink:href="#CMTT12-53" transform="scale(0.996264)"/>
      <use xlink:href="#CMTT12-74" transform="translate(51.266111 0) scale(0.996264)"/>
      <use xlink:href="#CMTT12-65" transform="translate(102.532222 0) scale(0.996264)"/>
      <use xlink:href="#CMTT12-70" transform="translate(153.798333 0) scale(0.996264)"/>
      <use xlink:href="#CMTT12-73" transform="translate(205.064443 0) scale(0.996264)"/>
     </g>
    </g>
   </g>
   <g id="matplotlib.axis_6">
    <g id="ytick_6">
     <g id="line2d_31">
      <path d="M 503.0915 153.468152 
L 681.6515 153.468152 
" clip-path="url(#pe44ed471ab)" style="fill: none; stroke-dasharray: 2.96,1.28; stroke-dashoffset: 0; stroke: #dddddd; stroke-width: 0.8"/>
     </g>
     <g id="line2d_32">
      <g>
       <use xlink:href="#m4f8ac0980b" x="503.0915" y="153.468152" style="stroke: #000000; stroke-width: 0.8"/>
      </g>
     </g>
     <g id="text_18">
      <!-- 0 -->
      <g transform="translate(487.888923 158.338772) scale(0.16 -0.16)">
       <use xlink:href="#CMTT12-30" transform="scale(0.996264)"/>
      </g>
     </g>
    </g>
    <g id="ytick_7">
     <g id="line2d_33">
      <path d="M 503.0915 83.651547 
L 681.6515 83.651547 
" clip-path="url(#pe44ed471ab)" style="fill: none; stroke-dasharray: 2.96,1.28; stroke-dashoffset: 0; stroke: #dddddd; stroke-width: 0.8"/>
     </g>
     <g id="line2d_34">
      <g>
       <use xlink:href="#m4f8ac0980b" x="503.0915" y="83.651547" style="stroke: #000000; stroke-width: 0.8"/>
      </g>
     </g>
     <g id="text_19">
      <!-- 50 -->
      <g transform="translate(479.686345 88.522167) scale(0.16 -0.16)">
       <defs>
        <path id="CMTT12-35" d="M 2483 3533 
C 2573 3533 2739 3533 2739 3719 
C 2739 3904 2573 3904 2483 3904 
L 819 3904 
C 614 3904 563 3853 563 3656 
L 563 1954 
C 563 1864 563 1705 755 1705 
C 858 1705 883 1737 934 1800 
C 1126 2023 1408 2125 1741 2125 
C 2240 2125 2547 1673 2547 1222 
C 2547 708 2099 307 1562 307 
C 1229 307 890 466 774 765 
C 800 791 845 836 845 950 
C 845 1122 698 1210 589 1210 
C 531 1210 326 1178 326 930 
C 326 395 858 -64 1562 -64 
C 2336 -64 2963 509 2963 1222 
C 2963 1865 2483 2496 1741 2496 
C 1530 2496 1248 2458 979 2310 
L 979 3533 
L 2483 3533 
z
" transform="scale(0.015625)"/>
       </defs>
       <use xlink:href="#CMTT12-35" transform="scale(0.996264)"/>
       <use xlink:href="#CMTT12-30" transform="translate(51.266111 0) scale(0.996264)"/>
      </g>
     </g>
    </g>
   </g>
   <g id="line2d_35"/>
   <g id="line2d_36"/>
   <g id="patch_13">
    <path d="M 503.0915 159.264152 
L 503.0915 31.752152 
" style="fill: none; stroke: #000000; stroke-width: 0.8; stroke-linejoin: miter; stroke-linecap: square"/>
   </g>
   <g id="patch_14">
    <path d="M 681.6515 159.264152 
L 681.6515 31.752152 
" style="fill: none; stroke: #000000; stroke-width: 0.8; stroke-linejoin: miter; stroke-linecap: square"/>
   </g>
   <g id="patch_15">
    <path d="M 503.0915 159.264152 
L 681.6515 159.264152 
" style="fill: none; stroke: #000000; stroke-width: 0.8; stroke-linejoin: miter; stroke-linecap: square"/>
   </g>
   <g id="patch_16">
    <path d="M 503.0915 31.752152 
L 681.6515 31.752152 
" style="fill: none; stroke: #000000; stroke-width: 0.8; stroke-linejoin: miter; stroke-linecap: square"/>
   </g>
   <g id="text_20">
    <!-- scene-play -->
    <g transform="translate(541.10539 19.376552) scale(0.2 -0.2)">
     <defs>
      <path id="CMTT12-79" d="M 2714 2381 
L 2880 2381 
C 2970 2381 3142 2381 3142 2567 
C 3142 2752 2970 2752 2880 2752 
L 2176 2752 
C 2086 2752 1914 2752 1914 2567 
C 1914 2381 2086 2381 2176 2381 
L 2336 2381 
C 2157 1860 1792 801 1702 439 
L 1696 439 
C 1664 579 1638 648 1574 820 
L 979 2381 
L 1126 2381 
C 1216 2381 1389 2381 1389 2567 
C 1389 2752 1216 2752 1126 2752 
L 422 2752 
C 333 2752 160 2752 160 2567 
C 160 2381 333 2381 422 2381 
L 595 2381 
L 1491 94 
C 1517 30 1517 17 1517 11 
C 1517 -2 1350 -555 1254 -732 
C 1216 -796 1056 -1095 749 -1063 
C 755 -1043 774 -1005 774 -935 
C 774 -787 672 -685 525 -685 
C 365 -685 269 -794 269 -941 
C 269 -1184 474 -1440 794 -1440 
C 1414 -1440 1690 -620 1709 -569 
L 2714 2381 
z
" transform="scale(0.015625)"/>
     </defs>
     <use xlink:href="#CMTT12-73" transform="scale(0.996264)"/>
     <use xlink:href="#CMTT12-63" transform="translate(51.266111 0) scale(0.996264)"/>
     <use xlink:href="#CMTT12-65" transform="translate(102.532222 0) scale(0.996264)"/>
     <use xlink:href="#CMTT12-6e" transform="translate(153.798333 0) scale(0.996264)"/>
     <use xlink:href="#CMTT12-65" transform="translate(205.064443 0) scale(0.996264)"/>
     <use xlink:href="#CMTT12-2d" transform="translate(256.330554 0) scale(0.996264)"/>
     <use xlink:href="#CMTT12-70" transform="translate(307.596665 0) scale(0.996264)"/>
     <use xlink:href="#CMTT12-6c" transform="translate(358.862776 0) scale(0.996264)"/>
     <use xlink:href="#CMTT12-61" transform="translate(410.128887 0) scale(0.996264)"/>
     <use xlink:href="#CMTT12-79" transform="translate(461.394998 0) scale(0.996264)"/>
    </g>
   </g>
   <g id="legend_1">
    <g id="patch_17">
     <path d="M 423.316792 241.254008 
L 678.0515 241.254008 
Q 681.6515 241.254008 681.6515 237.654008 
L 681.6515 213.868952 
Q 681.6515 210.268952 678.0515 210.268952 
L 423.316792 210.268952 
Q 419.716792 210.268952 419.716792 213.868952 
L 419.716792 237.654008 
Q 419.716792 241.254008 423.316792 241.254008 
z
" style="fill: #ffffff; opacity: 0.8; stroke: #cccccc; stroke-linejoin: miter"/>
    </g>
    <g id="line2d_37">
     <path d="M 426.916792 225.868952 
L 444.916792 225.868952 
L 462.916792 225.868952 
" style="fill: none; stroke: #878787; stroke-width: 2; stroke-linecap: square"/>
     <g>
      <use xlink:href="#m4ddbedbef3" x="444.916792" y="225.868952" style="fill: #e7e7e7; stroke: #878787; stroke-width: 1.5"/>
     </g>
    </g>
    <g id="text_21">
     <!-- Original -->
     <g transform="translate(477.316792 230.068952) scale(0.18 -0.18)">
      <defs>
       <path id="CMTT12-4f" d="M 2938 1974 
C 2938 3845 2803 4019 1645 4019 
C 486 4019 352 3845 352 1981 
C 352 110 486 -64 1645 -64 
C 2803 -64 2938 110 2938 1974 
z
M 1645 307 
C 1062 307 922 462 851 758 
C 768 1086 768 1666 768 2033 
C 768 2444 768 2902 838 3211 
C 928 3565 1120 3648 1645 3648 
C 2150 3648 2355 3571 2445 3230 
C 2522 2927 2522 2425 2522 2033 
C 2522 1634 2522 1138 2451 790 
C 2381 462 2240 307 1645 307 
z
" transform="scale(0.015625)"/>
       <path id="CMTT12-69" d="M 1933 3616 
C 1933 3776 1805 3904 1645 3904 
C 1485 3904 1357 3776 1357 3616 
C 1357 3456 1485 3328 1645 3328 
C 1805 3328 1933 3456 1933 3616 
z
M 832 2752 
C 742 2752 576 2752 576 2567 
C 576 2381 742 2381 832 2381 
L 1517 2381 
L 1517 371 
L 787 371 
C 698 371 525 371 525 186 
C 525 0 698 0 787 0 
L 2566 0 
C 2656 0 2822 0 2822 186 
C 2822 371 2656 371 2566 371 
L 1933 371 
L 1933 2491 
C 1933 2688 1894 2752 1677 2752 
L 832 2752 
z
" transform="scale(0.015625)"/>
      </defs>
      <use xlink:href="#CMTT12-4f" transform="scale(0.996264)"/>
      <use xlink:href="#CMTT12-72" transform="translate(51.266111 0) scale(0.996264)"/>
      <use xlink:href="#CMTT12-69" transform="translate(102.532222 0) scale(0.996264)"/>
      <use xlink:href="#CMTT12-67" transform="translate(153.798333 0) scale(0.996264)"/>
      <use xlink:href="#CMTT12-69" transform="translate(205.064443 0) scale(0.996264)"/>
      <use xlink:href="#CMTT12-6e" transform="translate(256.330554 0) scale(0.996264)"/>
      <use xlink:href="#CMTT12-61" transform="translate(307.596665 0) scale(0.996264)"/>
      <use xlink:href="#CMTT12-6c" transform="translate(358.862776 0) scale(0.996264)"/>
     </g>
    </g>
    <g id="line2d_38">
     <path d="M 587.139931 225.868952 
L 605.139931 225.868952 
L 623.139931 225.868952 
" style="fill: none; stroke: #598be7; stroke-width: 2; stroke-linecap: square"/>
     <g>
      <use xlink:href="#mc3a89d26db" x="605.139931" y="225.868952" style="fill: #dbe6fa; stroke: #598be7; stroke-width: 1.5"/>
     </g>
    </g>
    <g id="text_22">
     <!-- Dual -->
     <g transform="translate(637.539931 230.068952) scale(0.18 -0.18)">
      <defs>
       <path id="CMTT12-44" d="M 397 3904 
C 307 3904 141 3904 141 3719 
C 141 3533 307 3533 397 3533 
L 525 3533 
L 525 371 
L 397 371 
C 307 371 141 371 141 186 
C 141 0 307 0 397 0 
L 1670 0 
C 2496 0 3046 908 3046 1917 
C 3046 2939 2515 3904 1664 3904 
L 397 3904 
z
M 941 371 
L 941 3533 
L 1549 3533 
C 2291 3533 2630 2652 2630 1923 
C 2630 1151 2253 371 1555 371 
L 941 371 
z
" transform="scale(0.015625)"/>
      </defs>
      <use xlink:href="#CMTT12-44" transform="scale(0.996264)"/>
      <use xlink:href="#CMTT12-75" transform="translate(51.266111 0) scale(0.996264)"/>
      <use xlink:href="#CMTT12-61" transform="translate(102.532222 0) scale(0.996264)"/>
      <use xlink:href="#CMTT12-6c" transform="translate(153.798333 0) scale(0.996264)"/>
     </g>
    </g>
   </g>
   <g id="line2d_39">
    <path d="M 511.207864 153.468152 
L 527.440591 112.276355 
L 543.673319 103.339829 
L 559.906046 107.249559 
L 576.138773 111.857455 
L 592.3715 110.600756 
L 608.604228 109.623324 
L 624.836955 111.578189 
L 641.069682 113.114154 
L 657.30241 111.857455 
L 673.535137 112.136722 
" clip-path="url(#pe44ed471ab)" style="fill: none; stroke: #878787; stroke-width: 2; stroke-linecap: square"/>
    <g clip-path="url(#pe44ed471ab)">
     <use xlink:href="#m4ddbedbef3" x="511.207864" y="153.468152" style="fill: #e7e7e7; stroke: #878787; stroke-width: 1.5"/>
     <use xlink:href="#m4ddbedbef3" x="527.440591" y="112.276355" style="fill: #e7e7e7; stroke: #878787; stroke-width: 1.5"/>
     <use xlink:href="#m4ddbedbef3" x="543.673319" y="103.339829" style="fill: #e7e7e7; stroke: #878787; stroke-width: 1.5"/>
     <use xlink:href="#m4ddbedbef3" x="559.906046" y="107.249559" style="fill: #e7e7e7; stroke: #878787; stroke-width: 1.5"/>
     <use xlink:href="#m4ddbedbef3" x="576.138773" y="111.857455" style="fill: #e7e7e7; stroke: #878787; stroke-width: 1.5"/>
     <use xlink:href="#m4ddbedbef3" x="592.3715" y="110.600756" style="fill: #e7e7e7; stroke: #878787; stroke-width: 1.5"/>
     <use xlink:href="#m4ddbedbef3" x="608.604228" y="109.623324" style="fill: #e7e7e7; stroke: #878787; stroke-width: 1.5"/>
     <use xlink:href="#m4ddbedbef3" x="624.836955" y="111.578189" style="fill: #e7e7e7; stroke: #878787; stroke-width: 1.5"/>
     <use xlink:href="#m4ddbedbef3" x="641.069682" y="113.114154" style="fill: #e7e7e7; stroke: #878787; stroke-width: 1.5"/>
     <use xlink:href="#m4ddbedbef3" x="657.30241" y="111.857455" style="fill: #e7e7e7; stroke: #878787; stroke-width: 1.5"/>
     <use xlink:href="#m4ddbedbef3" x="673.535137" y="112.136722" style="fill: #e7e7e7; stroke: #878787; stroke-width: 1.5"/>
    </g>
   </g>
   <g id="line2d_40">
    <path d="M 511.207864 153.468152 
L 527.440591 101.245331 
L 543.673319 64.521797 
L 559.906046 57.67977 
L 576.138773 53.211507 
L 592.3715 57.121237 
L 608.604228 52.234075 
L 624.836955 54.328573 
L 641.069682 48.324345 
L 657.30241 48.045078 
L 673.535137 49.720677 
" clip-path="url(#pe44ed471ab)" style="fill: none; stroke: #598be7; stroke-width: 2; stroke-linecap: square"/>
    <g clip-path="url(#pe44ed471ab)">
     <use xlink:href="#mc3a89d26db" x="511.207864" y="153.468152" style="fill: #dbe6fa; stroke: #598be7; stroke-width: 1.5"/>
     <use xlink:href="#mc3a89d26db" x="527.440591" y="101.245331" style="fill: #dbe6fa; stroke: #598be7; stroke-width: 1.5"/>
     <use xlink:href="#mc3a89d26db" x="543.673319" y="64.521797" style="fill: #dbe6fa; stroke: #598be7; stroke-width: 1.5"/>
     <use xlink:href="#mc3a89d26db" x="559.906046" y="57.67977" style="fill: #dbe6fa; stroke: #598be7; stroke-width: 1.5"/>
     <use xlink:href="#mc3a89d26db" x="576.138773" y="53.211507" style="fill: #dbe6fa; stroke: #598be7; stroke-width: 1.5"/>
     <use xlink:href="#mc3a89d26db" x="592.3715" y="57.121237" style="fill: #dbe6fa; stroke: #598be7; stroke-width: 1.5"/>
     <use xlink:href="#mc3a89d26db" x="608.604228" y="52.234075" style="fill: #dbe6fa; stroke: #598be7; stroke-width: 1.5"/>
     <use xlink:href="#mc3a89d26db" x="624.836955" y="54.328573" style="fill: #dbe6fa; stroke: #598be7; stroke-width: 1.5"/>
     <use xlink:href="#mc3a89d26db" x="641.069682" y="48.324345" style="fill: #dbe6fa; stroke: #598be7; stroke-width: 1.5"/>
     <use xlink:href="#mc3a89d26db" x="657.30241" y="48.045078" style="fill: #dbe6fa; stroke: #598be7; stroke-width: 1.5"/>
     <use xlink:href="#mc3a89d26db" x="673.535137" y="49.720677" style="fill: #dbe6fa; stroke: #598be7; stroke-width: 1.5"/>
    </g>
   </g>
  </g>
 </g>
 <defs>
  <clipPath id="p05cc989a58">
   <rect x="49.5491" y="31.752152" width="178.56" height="127.512"/>
  </clipPath>
  <clipPath id="p27159e7527">
   <rect x="276.3203" y="31.752152" width="178.56" height="127.512"/>
  </clipPath>
  <clipPath id="pe44ed471ab">
   <rect x="503.0915" y="31.752152" width="178.56" height="127.512"/>
  </clipPath>
 </defs>
</svg>
